<?xml version="1.0" encoding="UTF-8"?>
<svg width="82px" height="81px" viewBox="0 0 82 81" version="1.1" xmlns="http://www.w3.org/2000/svg" xmlns:xlink="http://www.w3.org/1999/xlink">
    <title>B8A39B28-2445-48BE-92B5-1F8B8DB508FB</title>
    <defs>
        <path d="M28,5.33333333 L4,5.33333333 C2.53333333,5.33333333 1.33333333,6.53333333 1.33333333,8 L1.33333333,25.3333333 C1.33333333,26.8 2.53333333,28 4,28 L28,28 C29.4666667,28 30.6666667,26.8 30.6666667,25.3333333 L30.6666667,8 C30.6666667,6.53333333 29.4666667,5.33333333 28,5.33333333 Z M4,25.3333333 L4,8 L14.6666667,8 L14.6666667,25.3333333 L4,25.3333333 Z M28,25.3333333 L17.3333333,25.3333333 L17.3333333,8 L28,8 L28,25.3333333 Z M18.6666667,12.6666667 L26.6666667,12.6666667 L26.6666667,14.6666667 L18.6666667,14.6666667 L18.6666667,12.6666667 Z M18.6666667,16 L26.6666667,16 L26.6666667,18 L18.6666667,18 L18.6666667,16 Z M18.6666667,19.3333333 L26.6666667,19.3333333 L26.6666667,21.3333333 L18.6666667,21.3333333 L18.6666667,19.3333333 Z" id="path-1"></path>
    </defs>
    <g id="SG---APIs" stroke="none" stroke-width="1" fill="none" fill-rule="evenodd">
        <g id="SG---APIs-00" transform="translate(-309.000000, -408.000000)">
            <g id="Card-/-Workspace-/-Default" transform="translate(210.000000, 381.000000)">
                <g id="Illustration-/-Modules-/-Security-Gateway-/-App" transform="translate(99.000000, 27.000000)">
                    <path d="M82.3300746,56.8017335 L82.3300746,32.3644243 C82.3217602,30.3800123 81.054514,28.614636 79.1635333,27.9531767 L79.1635333,22.9654593 C79.1635333,20.3700067 77.03697,18.2659767 74.4137213,18.2659767 L30.0821426,18.2659767 C29.2077264,18.2659767 28.498872,17.5646334 28.498872,16.6994825 C28.498872,14.10403 26.3723087,12 23.74906,12 L4.749812,12 C2.12656327,12 -8.52651283e-14,14.10403 -8.52651283e-14,16.6994825 L-8.52651283e-14,76.2262614 C-8.52651283e-14,78.8217139 2.12656327,80.9257439 4.749812,80.9257439 L41.2457841,80.9257439 C46.7672624,80.9535328 59.0318065,80.9770054 78.0394164,80.9961618 L78.0394164,80.996165 C80.2327247,80.9983755 82.0187403,79.2339485 82.0432022,77.0407755 C82.1561073,66.9180385 82.2517314,60.1716912 82.3300746,56.8017335 Z M3.16654133,76.2262614 L3.16654133,16.6994825 C3.16654133,15.8343317 3.87539575,15.1329884 4.749812,15.1329884 L23.74906,15.1329884 C24.6234762,15.1329884 25.3323306,15.8343317 25.3323306,16.6994825 C25.3323306,19.2949351 27.4588939,21.3989651 30.0821426,21.3989651 L74.4137213,21.3989651 C75.2881375,21.3989651 75.9969919,22.1003084 75.9969919,22.9654593 L75.9969919,27.6649418 L17.4159773,27.6649418 C13.0460661,27.6701208 9.50485847,31.1738055 9.49962399,35.4974127 L9.49962399,73.093273 C9.50544539,74.7936543 10.0762406,76.4449614 11.1240597,77.7927555 L4.749812,77.7927555 C3.87539575,77.7927555 3.16654133,77.0914122 3.16654133,76.2262614 Z M78,31 C78.5522847,31 79,31.4477153 79,32 L79,77 C79,77.5522847 78.5522847,78 78,78 L16,78 C14.3431458,78 13,76.6568542 13,75 L13,35 C13,32.790861 14.790861,31 17,31 L78,31 Z M19,45 L16,45 L16,48 L19,48 L19,45 Z M24,35 L17.6,35 C16.7163444,35 16,35.6268014 16,36.4 L16,42 L19.2,42 L19.2,37.8 L24,37.8 L24,35 Z" id="Folder" fill="#E3EFF7" fill-rule="nonzero"></path>
                    <g id="Icon-/-Reader-Mode" transform="translate(30.000000, 38.000000)">
                        <mask id="mask-2" fill="white">
                            <use xlink:href="#path-1"></use>
                        </mask>
                        <use id="Mask" fill="#636973" fill-rule="nonzero" xlink:href="#path-1"></use>
                        <g id="color/Yellow-Color" mask="url(#mask-2)" fill="#FFE075">
                            <rect id="Main-Color" x="0" y="0" width="32" height="32"></rect>
                        </g>
                    </g>
                </g>
            </g>
        </g>
    </g>
</svg>