<?xml version="1.0" encoding="UTF-8"?>
<svg width="80px" height="80px" viewBox="0 0 80 80" version="1.1" xmlns="http://www.w3.org/2000/svg" xmlns:xlink="http://www.w3.org/1999/xlink">
    <!-- Generator: Sketch 64 (93537) - https://sketch.com -->
    <title>iso-logo</title>
    <desc>Created with Sketch.</desc>
    <g id="App-Onboarding" stroke="none" stroke-width="1" fill="none" fill-rule="evenodd">
        <g id="CE---Login" transform="translate(-1060.000000, -256.000000)" fill="#A2DFFF" fill-rule="nonzero">
            <g id="logo/iso-logo" transform="translate(1060.000000, 256.000000)">
                <path d="M79.9689331,23.5584896 C79.9442623,23.4543253 79.8958345,23.277977 79.7944102,23.2268086 L56.7729261,0.205587409 C56.5755599,0.106905453 56.5161674,0 56.2776832,0 L23.7232305,0 C23.5843432,0 23.2901214,0.0776663545 23.2270739,0.205587409 L0.205589757,23.2268086 C0.0813221706,23.3510748 0,23.5466112 0,23.7220458 L0,56.2788679 C0,56.3446559 0.0749260448,56.7695365 0.201021096,56.7695365 L23.2261602,79.7944126 C23.3513415,79.9195925 23.5386566,80 23.7159206,80 L56.2849931,80 C56.4631709,80 56.6486585,79.9195925 56.7747536,79.7934989 L79.7989789,56.7695365 C79.925074,56.6352194 80,56.4634397 80,56.2779542 L80,23.7229595 C79.9990863,23.6653951 79.9936039,23.6580853 79.9689331,23.5584896 Z M39.9995431,38.2091052 L29.3801469,12.5718985 L39.9995431,8.17232793 L50.6189394,12.5709848 L39.9995431,38.2091052 Z M51.886286,13.0963748 L62.5047685,17.4950316 L66.9034756,28.1152203 L41.2668898,38.7335816 L51.886286,13.0963748 Z M38.7331102,38.7335816 L13.0956107,28.1143066 L17.4943177,17.4950316 L28.113714,13.0963748 L38.7331102,38.7335816 Z M38.2086279,40 L12.5711283,50.619275 L8.17242128,40 L12.5711283,29.380725 L38.2086279,40 Z M38.7331102,41.2673322 L28.113714,66.9036252 L17.4943177,62.5049684 L13.0956107,51.8866071 L38.7331102,41.2673322 Z M39.9995431,41.7918085 L50.6189394,67.4290152 L39.9995431,71.8267583 L29.3801469,67.4281015 L39.9995431,41.7918085 Z M41.2668898,41.2673322 L66.9034756,51.8866071 L62.5047685,62.5049684 L51.886286,66.9027115 L41.2668898,41.2673322 Z M41.7913721,40 L67.4288717,29.380725 L71.826665,40 L67.4288717,50.619275 L41.7913721,40 Z M68.6943908,28.8562487 L78.0464404,24.9829819 L72.5686156,38.2091052 L68.6943908,28.8562487 Z M68.1708222,27.5898303 L64.2965975,18.2369738 L77.5237856,23.7156498 L68.1708222,27.5898303 Z M67.3155689,12.6852 L76.3944125,21.76394 L63.5555606,16.446079 L58.2376389,3.60737374 L67.3155689,12.6852 Z M56.2840794,2.47801357 L61.762818,15.7050506 L52.4098546,11.8308701 L56.2840794,2.47801357 Z M51.1434217,11.30548 L41.7904584,7.43129954 L55.0176465,1.95262352 L51.1434217,11.30548 Z M52.8393088,1.37149645 L39.9995431,6.68935743 L27.1606912,1.37149645 L52.8393088,1.37149645 Z M38.2095416,7.43129954 L28.8565783,11.30548 L24.9823535,1.95262352 L38.2095416,7.43129954 Z M23.7150069,2.47709985 L27.5892317,11.8299564 L18.2353546,15.7041369 L23.7150069,2.47709985 Z M12.6844311,12.6852 L21.7632748,3.60554629 L16.4453531,16.4451653 L3.60558747,21.7630262 L12.6844311,12.6852 Z M15.7034025,18.2369738 L11.8291778,27.5898303 L2.47621441,23.7156498 L15.7034025,18.2369738 Z M11.3046954,28.8562487 L7.43047069,38.2091052 L1.95173209,24.9820682 L11.3046954,28.8562487 Z M1.37059838,27.1612947 L6.6885201,40 L1.37059838,52.839619 L1.37059838,27.1612947 Z M7.43047069,41.7908948 L11.3046954,51.1437513 L1.95173209,55.0179318 L7.43047069,41.7908948 Z M11.8291778,52.4110834 L15.7034025,61.7630262 L2.47712814,56.2843502 L11.8291778,52.4110834 Z M3.6065012,58.2369738 L16.4453531,63.5548347 L21.7632748,76.39354 L3.6065012,58.2369738 Z M18.2362683,64.2967768 L27.5892317,68.1700436 L23.7150069,77.5229002 L18.2362683,64.2967768 Z M28.8556646,68.69452 L38.2077142,72.5687005 L24.9814398,78.0473765 L28.8556646,68.69452 Z M27.161605,78.6285036 L39.9995431,73.3115563 L52.838395,78.6285036 L27.161605,78.6285036 Z M41.7913721,72.5696142 L51.1434217,68.6954337 L55.0167327,78.0473765 L41.7913721,72.5696142 Z M56.2840794,77.5219864 L52.4107683,68.1700436 L61.7619042,64.2967768 L56.2840794,77.5219864 Z M58.2367252,76.3926263 L63.5537332,63.553921 L76.3925851,58.2369738 L58.2367252,76.3926263 Z M64.2965975,61.7621125 L68.1699085,52.4110834 L77.5219581,56.2843502 L64.2965975,61.7621125 Z M68.6943908,51.1437513 L72.5686156,41.7918085 L78.0464404,55.0179318 L68.6943908,51.1437513 Z M78.6284879,52.8387053 L73.3114799,40 L78.6284879,27.1622085 L78.6284879,52.8387053 Z" id="Shape"></path>
            </g>
        </g>
    </g>
</svg>